<svg width="500" height="91" viewBox="0 0 500 91" fill="none" xmlns="http://www.w3.org/2000/svg">
<g clip-path="url(#clip0_466_15)">
<path d="M21.9489 54.8599C30.7808 58.6604 31.5015 52.7595 39.1213 51.7487C39.7896 52.3263 28.6842 65.165 27.8456 65.4538C24.0586 66.7272 3.68223 56.4024 3.76741 68.1778C3.83292 77.0258 17.8146 74.9582 23.5082 73.6651C26.9611 76.2381 -0.0523388 83.7208 7.61816e-05 66.5959C0.0328356 56.002 9.6772 51.9128 18.8302 53.2978C18.9678 45.3097 20.7564 36.5142 11.0138 34.486C19.1905 26.8983 22.663 18.9233 14.6894 9.3468L4.75019 11.8016L19.6492 0L57.8597 47.0359V12.6024C54.2169 12.9766 48.7133 8.441 46.1384 8.46725C44.7953 8.48038 37.2803 15.077 37.5948 10.2526C37.6406 9.58966 46.2301 1.18804 46.9705 0.840162C52.4348 -1.69345 55.2914 3.39347 60.2315 3.35408C64.3264 3.32126 65.1716 -0.0525101 68.7882 0.0918927C70.0134 1.14866 60.985 9.14332 60.985 10.2526V65.8148C58.3642 66.3859 57.827 64.9747 56.3331 63.4388C44.3301 51.0923 35.0985 31.9918 21.9554 20.4264V54.8599H21.9489Z" fill="white" fill-opacity="0.9"/>
<path d="M208.736 32.5629L205.087 30.4165C195.108 31.1976 199.616 57.8465 201.824 64.6006L195.508 69.3134L185.995 63.0844C185.372 61.6535 189.349 57.8924 189.919 54.3874C190.758 49.248 192.448 25.5593 183.767 31.7884C181.12 28.3096 190.948 22.3365 193.903 20.7612L203.272 27.1346L211.298 21.0566L222.004 28.6181L231.373 20.7612C233.896 20.7612 240.028 26.9968 239.982 29.3991C239.943 31.4011 237.27 33.3243 236.896 35.7594C236.235 40.0718 236.149 53.3634 236.824 57.6036C237.689 63.0122 239.766 59.6975 243.068 60.7214L232.926 69.3921L222.81 62.2902C223.367 60.5048 227.462 60.2029 227.462 59.9403V32.5497L223.812 30.4034C215.924 31.0204 217.162 51.4928 217.968 57.7021C218.413 61.1284 223.321 59.028 220.431 64.6269C215.4 74.3872 204.098 63.3075 204.071 62.2836C204.052 61.5681 208.73 58.2534 208.73 57.5839V32.5432L208.736 32.5629Z" fill="white" fill-opacity="0.9"/>
<path d="M312.485 79.3953L329.625 69.2018C326.08 65.1847 321.009 62.3492 315.591 62.1457L317.406 35.0177C321.494 32.7663 334.958 20.9909 337.854 21.6932C339.944 22.2052 349.47 29.957 349.785 31.8605C343.089 46.0251 348.14 63.3928 349.785 78.3123L330.437 90.278L312.479 79.3953H312.485ZM337.461 62.1654V34.7748C337.461 34.2563 332.907 30.5018 331.997 29.3269C331.256 30.318 328.092 32.7269 328.092 33.2061V57.4658L337.461 62.1588V62.1654ZM337.441 66.8585L326.559 75.4636C329.088 78.7652 339.983 87.0618 340.514 78.7323L337.435 66.8585H337.441Z" fill="white" fill-opacity="0.9"/>
<path d="M478.058 86.4972C484.642 90.908 486.857 75.4438 491.961 82.7821C490.225 94.1636 469.101 93.5073 467.758 82.1585C466.893 74.853 476.865 67.0816 476.341 66.3333L462.32 59.2641C469.082 57.0521 468.027 33.1207 465.439 30.9809L460.741 29.55L471.1 21.0499L480.2 27.1542L489.609 20.9514C491.011 20.9317 498.375 35.6477 499.017 38.0894C505.464 62.5329 477.927 61.8896 476.348 78.2071C476.184 79.9203 477.154 85.9064 478.045 86.5037L478.058 86.4972ZM482.094 30.4951C472.856 31.2434 473.288 59.8877 484.957 61.2858C495.951 57.4919 488.803 29.9504 482.094 30.4951Z" fill="white" fill-opacity="0.9"/>
<path d="M402.777 26.0975C403.327 26.5439 403.38 27.7188 403.445 28.4802L415.081 21.0697L423.074 28.4933C419.477 38.5096 419.897 49.563 421.26 60.0125C430.341 58.5947 420.5 68.3091 417.853 69.0377C412.369 70.5473 411.333 65.2569 406.492 64.5349C406.066 60.4916 410.698 59.8615 411.216 55.8773C411.969 50.0618 407.494 37.4069 409.597 30.1408C408.804 29.2416 402.049 33.252 401.774 34.3679C401.014 37.4003 401.362 52.0703 401.709 56.0414C402.023 59.6449 405.509 61.9554 404.257 64.5218L397.922 69.2871L387.76 64.5415C386.613 60.4654 391.979 60.8723 392.477 58.7719C393.27 55.3982 392.897 32.4709 390.911 30.8038C379.76 33.4358 391.907 23.6296 395.006 20.8531C396.552 20.5971 401.152 24.7651 402.796 26.0975H402.777Z" fill="white" fill-opacity="0.9"/>
<path d="M124.578 26.0975C125.128 26.5439 125.18 27.7188 125.246 28.4802L136.882 21.0697L144.875 28.4933C141.278 38.5096 141.698 49.563 143.06 60.0125C152.141 58.5947 142.3 68.3091 139.653 69.0377C134.169 70.5473 133.134 65.2569 128.292 64.5349C127.867 60.4916 132.499 59.8615 133.016 55.8773C133.77 50.0618 129.295 37.4069 131.398 30.1408C130.605 29.2416 123.85 33.252 123.575 34.3679C122.815 37.4003 123.162 52.0703 123.51 56.0414C123.824 59.6449 127.31 61.9554 126.058 64.5218L119.723 69.2871L109.561 64.5415C108.414 60.4654 113.78 60.8723 114.278 58.7719C115.071 55.3982 114.697 32.4709 112.712 30.8038C101.561 33.4358 113.708 23.6296 116.807 20.8531C118.353 20.5971 122.953 24.7651 124.597 26.0975H124.578Z" fill="white" fill-opacity="0.9"/>
<path d="M72.2543 60.8002L74.613 32.6482L91.0582 20.8203L94.0328 20.8334L104.719 30.62L104.28 59.2708L88.6733 68.6701L72.2412 60.8067L72.2543 60.8002ZM94.1179 60.8133V33.4227C94.1179 32.1953 88.4833 29.0447 87.0812 27.9814L84.7487 30.2918V56.1137L94.1179 60.8067V60.8133Z" fill="white" fill-opacity="0.9"/>
<path d="M312.328 27.0165C313.612 28.8346 306.549 35.9104 305.331 36.0023C302.907 36.1926 299.991 30.8694 296.735 31.6899L295.116 58.936L299.853 63.7538L292.863 69.4118L281.122 64.5349C287.903 61.555 286.848 32.6154 284.28 30.8038L279.569 29.3532L289.914 20.8334L297.514 26.964L303.758 20.7546L312.335 27.0165H312.328Z" fill="white" fill-opacity="0.9"/>
<path d="M382.702 58.8572C383.678 63.1631 381.28 61.5221 379.583 62.7036C364.808 72.9496 369.349 68.0465 353.146 61.8372L354.856 33.2717L371.236 21.5422L382.682 29.8979C382.649 31.0663 366.643 40.4196 364.795 44.7911C359.665 56.9078 373.103 64.699 382.702 58.8572ZM371.78 32.274L366.309 29.1431L363.976 38.4964C365.503 40.203 372.336 33.0288 371.78 32.274Z" fill="white" fill-opacity="0.9"/>
<path d="M275.985 58.8572C276.961 63.1631 274.563 61.5221 272.866 62.7036C258.092 72.9496 262.632 68.0465 246.429 61.8372L248.139 33.2717L264.519 21.5422L275.965 29.8979C275.932 31.0663 259.926 40.4196 258.078 44.7911C252.948 56.9078 266.386 64.699 275.985 58.8572ZM265.069 32.274L259.598 29.1431L257.266 38.4964C258.793 40.203 265.626 33.0288 265.069 32.274Z" fill="white" fill-opacity="0.9"/>
<path d="M179.738 58.8572C180.714 63.1631 178.316 61.5221 176.619 62.7036C161.844 72.9496 166.385 68.0465 150.182 61.8372L151.892 33.2717L168.272 21.5422L179.718 29.8979C179.685 31.0663 163.679 40.4196 161.831 44.7911C156.701 56.9078 170.139 64.699 179.738 58.8572ZM168.822 32.274L163.351 29.1431L161.019 38.4964C162.546 40.203 169.379 33.0288 168.822 32.274Z" fill="white" fill-opacity="0.9"/>
<path d="M438.642 28.8674V53.1271C438.642 53.9213 446.124 59.507 447.637 59.8877C452.139 61.0036 453.796 57.8924 457.387 57.8398L444.086 69.0573L428.375 60.1831L429.522 30.6856C441.728 27.1083 446.15 12.6877 457.341 28.0929L450.055 33.3176L438.635 28.874L438.642 28.8674Z" fill="white" fill-opacity="0.9"/>
</g>
<defs>
<clipPath id="clip0_466_15">
<rect width="500" height="91" fill="white"/>
</clipPath>
</defs>
</svg>
